<svg xmlns="http://www.w3.org/2000/svg" viewBox="0 0 512 512" width="100%" height="100%">
  <!-- Background Shield Structure -->
  <path d="M256 32 C350 32 432 70 432 70 L432 240 C432 360 256 480 256 480 C256 480 80 360 80 240 L80 70 C80 70 162 32 256 32 Z" fill="#0f172a"/>
  
  <!-- Neon Blue Accent Shield Trim -->
  <path d="M256 56 C330 56 396 88 396 88 L396 235 C396 330 256 430 256 430 C256 430 116 330 116 235 L116 88 C116 88 182 56 256 56 Z" fill="none" stroke="#0ea5e9" stroke-width="20" stroke-linecap="round"/>
  
  <!-- The "I" Identity Core (Stylized Keyhole/Pillar) -->
  <circle cx="256" cy="160" r="40" fill="#f8fafc"/>
  <path d="M220 240 H292 V360 H220 Z" fill="#f8fafc" rx="10"/>
  <path d="M190 350 H322 V380 H190 Z" fill="#f8fafc" rx="5"/>
</svg>

